Patient4_TMGait_0pt5_02_left_09_GRF.mot
version=1
nRows=32
nColumns=19
inDegrees=no
endheader
time	F1x	F1y	F1z	M1x	M1y	M1z	F2x	F2y	F2z	M2x	M2y	M2z	EC1x	EC1y	EC1z	EC2x	EC2y	EC2z
11.1	2.3571	1.6256	-1.1433	-1.0855	4.1446	2.8991	-51.5513	698.6321	-77.9404	251.4868	86.7836	614.7639	-0.0592	0.0182	-0.0073	-0.0462	0.0165	0.9585
11.1129	1.3295	1.5292	-0.7766	-0.88834	2.7153	2.405	-45.942	699.6685	-69.4785	250.6415	77.2798	608.6685	-0.0592	0.0182	-0.0073	-0.0462	0.0165	0.9585
11.1257	0.49822	1.4852	-0.43024	-0.74174	1.4864	2.0274	-39.1227	703.8143	-61.6402	251.4242	67.8416	603.9877	-0.0592	0.0182	-0.0073	-0.0462	0.0165	0.9585
11.1386	-0.10563	1.4891	-0.13704	-0.64861	0.5323	1.7825	-31.3538	712.0661	-54.9402	254.2487	59.0049	601.8129	-0.0592	0.0182	-0.0073	-0.0462	0.0165	0.9585
11.1514	-0.51075	1.5355	0.076957	-0.60438	-0.13232	1.6715	-23.0572	724.83	-49.6176	259.1938	51.1247	602.7893	-0.0592	0.0182	-0.0073	-0.0462	0.0165	0.9585
11.1643	-0.75935	1.602	0.22329	-0.59474	-0.55331	1.6486	-14.8154	741.604	-45.7709	265.9366	44.4846	606.8854	-0.0592	0.0182	-0.0073	-0.0462	0.0165	0.9585
11.1771	-0.90953	1.6633	0.3063	-0.60172	-0.78483	1.6677	-7.2533	760.9052	-43.3824	273.7701	39.2815	613.3034	-0.0592	0.0182	-0.0073	-0.0462	0.0165	0.9585
11.19	-1.0026	1.6714	0.35276	-0.60036	-0.89953	1.664	-0.92818	780.5593	-42.3262	281.7431	35.5966	620.6796	-0.0592	0.0182	-0.0073	-0.0462	0.0165	0.9585
11.2029	-1.0796	1.5698	0.37429	-0.56234	-0.95095	1.5671	3.8399	798.1517	-42.3551	288.8552	33.335	627.3617	-0.0592	0.0182	-0.0073	-0.0462	0.0165	0.9585
11.2157	-1.1656	1.2867	0.38632	-0.45457	-0.98248	1.3005	6.9883	811.5234	-43.144	294.2439	32.2545	631.8002	-0.0592	0.0182	-0.0073	-0.0462	0.0165	0.9585
11.2286	-1.2575	0.73239	0.39932	-0.24295	-1.0157	0.77817	8.7024	819.0964	-44.3521	297.3028	32.0189	632.7818	-0.0592	0.0182	-0.0073	-0.0462	0.0165	0.9585
11.2414	-1.3505	-0.17397	0.42089	0.10271	-1.0605	-0.075525	9.3258	820.1208	-45.6732	297.7628	32.2719	629.6394	-0.0592	0.0182	-0.0073	-0.0462	0.0165	0.9585
11.2543	-1.4033	-1.4994	0.44714	0.60621	-1.0977	-1.3363	9.2718	814.7642	-46.877	295.7122	32.6943	622.3477	-0.0592	0.0182	-0.0073	-0.0462	0.0165	0.9585
11.2671	-1.3614	-3.2387	0.46271	1.2659	-1.0875	-2.9935	8.9703	803.9414	-47.8443	291.5251	33.0458	611.4068	-0.0592	0.0182	-0.0073	-0.0462	0.0165	0.9585
11.28	-1.1237	-5.281	0.44793	2.0381	-0.97357	-4.9528	8.8091	789.093	-48.5582	285.7691	33.1762	597.7169	-0.0592	0.0182	-0.0073	-0.0462	0.0165	0.9585
11.2929	-0.57917	-7.3363	0.36835	2.8121	-0.68196	-6.9426	9.1184	771.9432	-49.0637	279.1139	33.0037	582.3993	-0.0592	0.0182	-0.0073	-0.0462	0.0165	0.9585
11.3057	0.41096	-8.8612	0.17959	3.3809	-0.12021	-8.4502	10.1237	754.2637	-49.4536	272.2411	32.5201	566.6424	-0.0592	0.0182	-0.0073	-0.0462	0.0165	0.9585
11.3186	1.9818	-8.9807	-0.1642	3.4092	0.80377	-8.6469	11.9415	737.6076	-49.8164	265.7477	31.749	551.495	-0.0592	0.0182	-0.0073	-0.0462	0.0165	0.9585
11.3314	4.2162	-6.4363	-0.69938	2.4179	2.1526	-6.3504	14.5575	723.12	-50.2223	260.0707	30.7453	537.7477	-0.0592	0.0182	-0.0073	-0.0462	0.0165	0.9585
11.3443	7.1029	0.40725	-1.4396	-0.21165	3.9289	-0.03474	17.8634	711.3913	-50.7038	255.4376	29.5667	525.8306	-0.0592	0.0182	-0.0073	-0.0462	0.0165	0.9585
11.3571	10.4358	13.4573	-2.3591	-5.197	6.0287	12.1031	21.6586	702.3708	-51.2562	251.8353	28.2808	515.7567	-0.0592	0.0182	-0.0073	-0.0462	0.0165	0.9585
11.37	13.7362	34.6129	-3.3642	-13.2514	8.1795	31.856	25.6639	695.3205	-51.8122	248.9992	26.9385	507.0837	-0.0592	0.0182	-0.0073	-0.0462	0.0165	0.9585
11.3829	16.0962	65.2937	-4.2625	-24.8999	9.8585	60.5901	29.548	688.8695	-52.251	246.4357	25.5802	498.9396	-0.0592	0.0182	-0.0073	-0.0462	0.0165	0.9585
11.3957	16.1706	105.709	-4.7293	-40.2058	10.2538	98.5509	32.9488	681.1739	-52.3796	243.4797	24.2096	490.1467	-0.0592	0.0182	-0.0073	-0.0462	0.0165	0.9585
11.4086	12.6596	154.3663	-4.3274	-58.5779	8.4694	144.4127	35.5483	670.1796	-51.9671	239.395	22.7971	479.3722	-0.0592	0.0182	-0.0073	-0.0462	0.0165	0.9585
11.4214	5.6381	208.0869	-2.5554	-78.7662	4.0646	195.1992	37.1058	654.0299	-50.7838	233.5168	21.2866	465.4237	-0.0592	0.0182	-0.0073	-0.0462	0.0165	0.9585
11.4343	-3.1979	261.7799	1.1525	-98.8006	-2.8557	245.9667	37.5243	631.3777	-48.6782	225.3645	19.6242	447.4157	-0.0592	0.0182	-0.0073	-0.0462	0.0165	0.9585
11.4471	-11.9084	309.7603	6.9192	-116.5501	-11.6411	291.049	36.863	601.5968	-45.6512	214.7165	17.806	424.9049	-0.0592	0.0182	-0.0073	-0.0462	0.0165	0.9585
11.46	-19.2591	349.5923	13.8712	-131.143	-20.9446	327.8817	35.3217	564.9854	-41.8576	201.6738	15.867	398.0443	-0.0592	0.0182	-0.0073	-0.0462	0.0165	0.9585
11.4729	-24.8593	382.3622	21.1491	-143.0505	-29.7826	357.4121	33.1707	522.6276	-37.6528	186.6092	13.9387	367.5021	-0.0592	0.0182	-0.0073	-0.0462	0.0165	0.9585
11.4857	-28.7443	410.7147	27.9597	-153.3397	-37.4253	382.1227	30.6763	476.0931	-33.4119	170.0646	12.1488	334.3029	-0.0592	0.0182	-0.0073	-0.0462	0.0165	0.9585
11.4986	-31.0241	437.1751	33.7508	-163.0186	-43.4266	404.3719	28.0458	427.119	-29.4025	152.6462	10.5751	299.594	-0.0592	0.0182	-0.0073	-0.0462	0.0165	0.9585
